<?xml version="1.0" encoding="iso-8859-1"?>
<!-- Generator: Adobe Illustrator 19.0.0, SVG Export Plug-In . SVG Version: 6.00 Build 0)  -->
<svg version="1.1" id="Capa_1" xmlns="http://www.w3.org/2000/svg" xmlns:xlink="http://www.w3.org/1999/xlink" x="0px" y="0px"
	 viewBox="0 0 511.999 511.999" style="enable-background:new 0 0 511.999 511.999;" xml:space="preserve">
<g>
	<g>
		<path d="M286.158,286.017c-5.523,0-10.006,4.483-10.006,10.006c0,5.523,4.483,10.006,10.006,10.006
			c5.523,0,10.006-4.483,10.006-10.006C296.165,290.5,291.682,286.017,286.158,286.017z"/>
	</g>
</g>
<g>
	<g>
		<path d="M226.121,286.017c-5.523,0-10.006,4.483-10.006,10.006c0,5.523,4.483,10.006,10.006,10.006
			c5.523,0,10.006-4.483,10.006-10.006C236.127,290.5,231.644,286.017,226.121,286.017z"/>
	</g>
</g>
<g>
	<g>
		<path d="M501.304,212.62c-8.063-14.002-20.007-25.988-34.055-34.3c0.099-2.031,0.152-4.05,0.152-6.041
			c0-44.066-41.685-53.188-62.359-56.344c-0.761-6.141-2.269-11.548-4.548-16.113c-10.361-20.721-31.16-34.429-54.276-35.773
			l-44.009-2.567c-10.921-10.352-26.384-15.612-46.071-15.612c-19.737,0-35.213,5.289-46.104,15.692l-42.841,2.498
			c-23.121,1.344-43.922,15.047-54.279,35.763c-2.278,4.557-3.787,9.966-4.549,16.113c-20.668,3.154-62.358,12.272-62.358,56.343
			c0,1.986,0.053,4,0.152,6.03c-14.177,8.331-26.339,20.266-34.681,34.151c-10.747,17.888-14.032,36.926-9.5,55.054
			c7.552,30.21,49.758,73.677,116.074,119.699v22.825c0,30.927,25.358,56.092,56.525,56.092c23.247,0,35.369-13.286,43.967-17.996
			c5.386,2.87,10.731,5.665,15.948,8.339c13.573,6.958,30.176,7.293,44.408,0.028c4.887-2.495,9.76-5.044,14.548-7.606
			c7.741,4.207,19.86,17.235,42.831,17.235c30.848,0,55.945-25.164,55.945-56.095v-22.751
			c70.879-51.324,106.779-94.963,107.14-95.406c0.012-0.014,0.021-0.03,0.033-0.044c0.114-0.141,0.219-0.289,0.325-0.436
			c0.058-0.08,0.12-0.158,0.175-0.24c0.117-0.173,0.225-0.354,0.331-0.534c0.036-0.062,0.076-0.121,0.111-0.183
			c0.012-0.022,0.026-0.042,0.038-0.063c4.359-7.08,7.595-14.768,9.62-22.863C514.473,249.619,511.385,230.124,501.304,212.62z
			 M174.578,446.117c-20.134,0-36.513-16.186-36.513-36.083v-9.341c19.07,12.471,39.37,24.724,60.642,36.611
			C196.348,438.528,188.44,446.117,174.578,446.117z M372.212,410.034c0,19.896-16.119,36.084-35.933,36.084
			c-13.503,0-21.402-7.257-23.094-8.118c20.273-11.507,40.021-23.794,59.027-36.71V410.034z M490.589,262.657
			c-1.519,6.071-3.948,11.833-7.206,17.145c-36.801,43.647-115.014,108.559-213.577,158.877c-8.209,4.19-17.995,4.185-26.179-0.012
			c-36.566-18.748-74.478-40.729-109.397-64.607C58.652,322.386,26.389,282.632,21.393,262.656
			c-6.024-24.096,8.486-47.973,27.757-62.325c13.342,60.011,64.46,106.685,100.804,143.717c3.854,3.927,10.19,4.02,14.151,0.132
			c3.943-3.871,4.003-10.206,0.132-14.151c-32.121-32.72-91.397-85.505-97.668-147.019c-0.364-3.622-0.549-7.234-0.549-10.735
			c0-22.931,16.639-31.514,42.312-36.026c5.515,57.274,48.935,141.763,68.395,182.979c2.37,5.012,8.341,7.127,13.321,4.773
			c4.997-2.36,7.134-8.325,4.774-13.321c-13.839-29.266-67.654-132.463-67.024-185.893c0.076-6.779,1.092-12.17,3.017-16.02
			c7.164-14.327,21.549-23.805,37.543-24.734l28.184-1.643c-16.17,42.459,5.784,113.331,15.913,175.4
			c0.89,5.453,6.026,9.151,11.486,8.264c5.454-0.891,9.154-6.033,8.264-11.487c-10.657-65.315-35.979-147.308-10.194-176.639
			c7.106-8.107,18.27-12.049,34.13-12.049c15.832,0,27,3.923,34.14,11.992c25.832,29.206,0.475,111.195-10.205,176.697
			c-0.89,5.454,2.813,10.597,8.266,11.486c0.545,0.089,1.088,0.132,1.622,0.132c4.817,0,9.065-3.488,9.864-8.397
			c10.133-62.168,32.135-133.04,15.937-175.474l29.29,1.708c15.989,0.931,30.373,10.411,37.538,24.739
			c1.927,3.862,2.943,9.255,3.02,16.035c0.629,51.936-50.236,150.41-67.271,186.388c-2.364,4.995-0.231,10.961,4.764,13.325
			c4.995,2.365,10.962,0.23,13.325-4.763c12.992-27.468,62.813-122.615,68.653-183.495c25.671,4.514,42.308,13.097,42.308,36.025
			c0,3.501-0.185,7.112-0.548,10.726c-6.123,60.225-61.8,110.648-98.215,147.583c-3.879,3.935-3.835,10.27,0.1,14.151
			c3.936,3.88,10.271,3.835,14.152-0.1c32.12-32.579,87.538-82.06,101.367-144.207C482.844,214.619,496.664,238.354,490.589,262.657
			z"/>
	</g>
</g>
<g>
</g>
<g>
</g>
<g>
</g>
<g>
</g>
<g>
</g>
<g>
</g>
<g>
</g>
<g>
</g>
<g>
</g>
<g>
</g>
<g>
</g>
<g>
</g>
<g>
</g>
<g>
</g>
<g>
</g>
</svg>
