<?xml version="1.0" encoding="iso-8859-1"?>
<!-- Generator: Adobe Illustrator 19.0.0, SVG Export Plug-In . SVG Version: 6.00 Build 0)  -->
<svg version="1.1" id="Capa_1" xmlns="http://www.w3.org/2000/svg" xmlns:xlink="http://www.w3.org/1999/xlink" x="0px" y="0px"
	 viewBox="0 0 512 512" style="enable-background:new 0 0 512 512;" xml:space="preserve">
<g>
	<g>
		<polygon points="93.439,387.519 93.439,403.252 112.411,403.252 112.411,453.229 130.458,453.229 130.458,403.252 
			149.338,403.252 149.338,387.519 		"/>
	</g>
</g>
<g>
	<g>
		<rect x="155.91" y="387.52" width="18.05" height="65.71"/>
	</g>
</g>
<g>
	<g>
		<path d="M225.828,433.469c-10.466,11.133-30.607,0.547-24.988-19.25c3.838-13.536,18.911-13.248,25.081-6.895
			c4.378,4.517-1.713,6.942,16.242-5.831c-9.067-17.147-36.977-19.581-51.643-3.98c-24.652,26.22,5.522,70.215,40.953,52.291
			c4.811-2.436,9.264-6.24,11.337-11.291C223.833,427.174,229.923,429.11,225.828,433.469z"/>
	</g>
</g>
<g>
	<g>
		<path d="M283.718,416.95l23.878-29.431h-20.36l-19.991,24.988v-24.988h-18.047v65.71h18.047c0-22.764-1.665-17.246,4.998-24.155
			l16.289,24.155h20.73L283.718,416.95z"/>
	</g>
</g>
<g>
	<g>
		<polygon points="331.103,437.495 331.103,427.129 354.98,427.129 354.98,412.507 331.103,412.507 331.103,403.252 
			359.053,403.252 359.053,387.519 313.056,387.519 313.056,453.229 359.885,453.229 359.885,437.495 		"/>
	</g>
</g>
<g>
	<g>
		<polygon points="363.586,387.519 363.586,403.252 382.559,403.252 382.559,453.229 400.605,453.229 400.605,403.252 
			419.484,403.252 419.484,387.519 		"/>
	</g>
</g>
<g>
	<g>
		<path d="M457.74,327.653V83.097h33.749V0H20.51v83.097H54.26v244.556H20.51V512H491.49V327.653H457.74z M50.51,53.097V30H461.49
			c0,27.327,1.25,23.097-3.749,23.097C437.64,53.097,70.432,53.097,50.51,53.097z M195.877,320.79v6.863H84.26V83.097h343.48
			v244.556h0H316.122C316.122,236.238,195.877,242.962,195.877,320.79z M286.122,320.79v6.863h-60.246v-6.863
			c0-16.61,13.513-30.124,30.123-30.124S286.122,304.179,286.122,320.79z M461.489,482H50.51c0-138.173-1.677-124.347,3.749-124.347
			c10.345,0,393.256,0,407.229,0V482z"/>
	</g>
</g>
<g>
</g>
<g>
</g>
<g>
</g>
<g>
</g>
<g>
</g>
<g>
</g>
<g>
</g>
<g>
</g>
<g>
</g>
<g>
</g>
<g>
</g>
<g>
</g>
<g>
</g>
<g>
</g>
<g>
</g>
</svg>
