<?xml version="1.0" encoding="iso-8859-1"?>
<!-- Generator: Adobe Illustrator 19.0.0, SVG Export Plug-In . SVG Version: 6.00 Build 0)  -->
<svg version="1.1" id="Layer_1" xmlns="http://www.w3.org/2000/svg" xmlns:xlink="http://www.w3.org/1999/xlink" x="0px" y="0px"
	 viewBox="0 0 298.102 298.102" style="enable-background:new 0 0 298.102 298.102;" xml:space="preserve">
<g id="XMLID_1408_">
	<g>
		<g>
			<path d="M261.449,174.181V7.626c0-4.212-3.414-7.626-7.626-7.626H113.102c-4.211,0-7.626,3.414-7.626,7.626v3.855
				c6.359,2.623,11.701,7.221,15.252,13.033c2.982,4.88,4.703,10.609,4.703,16.734c0,6.125-1.721,11.855-4.703,16.734
				c-0.975,1.596-2.09,3.096-3.32,4.494h3.32h2.257c2.918,0,5.754,0.363,8.471,1.034V34.298c0-3.392,2.75-6.142,6.142-6.142h88.321
				c3.392,0,6.142,2.75,6.142,6.142v37.267c0,3.392-2.75,6.142-6.142,6.142h-73.85c5.864,8.397,6.352,15.809,6.388,22.883
				c2.454-1.529,2.094-1.312,2.704-1.663c6.573-3.787,14.423-3.562,20.618,0h43.883c3.535,0,6.401,2.866,6.401,6.401v61.227v7.626
				v24.837c0,3.535-2.866,6.401-6.401,6.401l-94.204-0.257v66.634h122.42c4.212,0,7.626-3.414,7.626-7.626v-89.989H261.449z"/>
			<circle cx="201.87" cy="174.209" r="13.253"/>
			<path d="M131.558,184.58h45.67v-20.743h-45.67C131.558,170.924,131.558,176.73,131.558,184.58z"/>
			<path d="M177.229,147.597h-16.06l-11.865,7.396c-1.143,0.713-2.332,1.29-3.545,1.755h31.47V147.597z"/>
			<polygon points="177.229,137.586 168.999,142.717 177.229,142.717 			"/>
			<path d="M144.253,146.89l33.088-20.625c5.21-3.247,6.8-10.103,3.553-15.313c-3.246-5.208-10.102-6.8-15.313-3.553l-16.192,10.093
				L149.29,97.8c-0.072-14.434-11.874-26.172-26.304-26.172c-2.527,0-56.917,0-59.673,0c-14.431,0-26.232,11.741-26.304,26.172
				l-0.41,81.66c-0.031,6.139,4.92,11.14,11.059,11.171c0.019,0,0.038,0,0.057,0c6.102,0,11.083-4.948,11.114-11.06l0.41-81.659
				c0-0.001,0-0.001,0-0.001c0.007-1.183,0.969-2.138,2.152-2.135s2.14,0.963,2.14,2.147c0.001,27.213,0.005,182.008,0.005,186.841
				c0,7.366,5.972,13.338,13.338,13.338s13.338-5.972,13.338-13.338c0-5.446,0-102.793,0-106.615h5.759c0,3.883,0,101.315,0,106.615
				c0,7.366,5.972,13.338,13.338,13.338s13.338-5.972,13.338-13.338c0-166.395-0.235-95.523-0.242-186.815
				c0-1.277,1.03-2.316,2.307-2.326c1.277-0.01,2.324,1.011,2.345,2.289l0.199,39.602
				C127.302,146.208,136.889,151.481,144.253,146.89z"/>
			<path d="M87.006,63.423c1.984,0.557,4.074,0.861,6.236,0.861c3.179,0,6.208-0.644,8.963-1.809
				c7.237-3.06,12.585-9.711,13.809-17.72c0.175-1.144,0.265-2.315,0.265-3.508c0-12.723-10.314-23.037-23.037-23.037
				c-12.723,0-23.037,10.314-23.037,23.037c0,1.193,0.09,2.364,0.265,3.508C71.845,53.74,78.41,61.01,87.006,63.423z"/>
			<path d="M200.311,116.832c-2.023,0-5.366,0-9.151,0c0,4.519,0,30.23,0,34.018h9.151V116.832z"/>
			<rect x="205.191" y="116.832" width="9.151" height="34.018"/>
			<polygon points="151.459,60.76 151.459,48.9 155.94,48.9 155.94,45.166 142.673,45.166 142.673,48.9 147.176,48.9 147.176,60.76 
							"/>
			<rect x="157.498" y="45.166" width="4.283" height="15.594"/>
			<path d="M168.799,50.185c0.285-0.388,0.651-0.703,1.098-0.944c0.447-0.242,0.978-0.363,1.593-0.363
				c0.293,0,0.597,0.029,0.911,0.088c0.315,0.058,0.618,0.161,0.911,0.307c0.293,0.146,0.56,0.344,0.801,0.593
				c0.242,0.249,0.436,0.564,0.582,0.944l3.272-2.328c-0.542-1.025-1.366-1.849-2.471-2.471c-1.106-0.622-2.413-0.933-3.921-0.933
				c-1.26,0-2.38,0.228-3.361,0.681c-0.982,0.454-1.815,1.047-2.504,1.779c-0.688,0.733-1.212,1.559-1.57,2.482
				c-0.359,0.922-0.538,1.86-0.538,2.811c0,0.996,0.19,1.977,0.571,2.943c0.381,0.967,0.918,1.83,1.615,2.592
				c0.695,0.761,1.522,1.373,2.482,1.834c0.959,0.461,2.017,0.692,3.174,0.692c0.659,0,1.336-0.081,2.032-0.242
				c0.695-0.161,1.347-0.395,1.955-0.703c0.607-0.307,1.149-0.688,1.625-1.142c0.476-0.454,0.831-0.967,1.065-1.537l-3.492-2.086
				c-0.132,0.352-0.311,0.648-0.538,0.889c-0.227,0.242-0.483,0.439-0.768,0.593c-0.286,0.153-0.582,0.263-0.889,0.33
				c-0.307,0.066-0.608,0.099-0.9,0.099c-0.557,0-1.058-0.113-1.505-0.34c-0.447-0.227-0.824-0.53-1.131-0.911
				c-0.307-0.381-0.542-0.82-0.703-1.318c-0.161-0.497-0.242-1.017-0.242-1.559c0-0.483,0.07-0.97,0.209-1.461
				C168.301,51.012,168.513,50.573,168.799,50.185z"/>
			<polygon points="179.637,45.166 179.637,60.76 183.92,60.76 183.92,56.257 185.106,55.028 188.972,60.76 193.892,60.76 
				187.83,52.151 193.497,45.166 188.665,45.166 183.92,51.097 183.92,45.166 			"/>
			<polygon points="205.708,48.9 205.708,45.166 194.791,45.166 194.791,60.76 205.905,60.76 205.905,57.026 199.074,57.026 
				199.074,54.567 204.741,54.567 204.741,51.097 199.074,51.097 199.074,48.9 			"/>
			<polygon points="215.569,60.76 215.569,48.9 220.049,48.9 220.049,45.166 206.783,45.166 206.783,48.9 211.286,48.9 
				211.286,60.76 			"/>
		</g>
	</g>
</g>
<g>
</g>
<g>
</g>
<g>
</g>
<g>
</g>
<g>
</g>
<g>
</g>
<g>
</g>
<g>
</g>
<g>
</g>
<g>
</g>
<g>
</g>
<g>
</g>
<g>
</g>
<g>
</g>
<g>
</g>
</svg>
